STARTFONT 2.1
COMMENT  
COMMENT  Copyright (c) 1984, 1987 Adobe Systems Incorporated. All Rights Reserved. Copyright (c) 1988, 1991 Digital Equipment Corporation. All Rights Reserved.
COMMENT  
COMMENT  WARNING:  This bdf file was generated from a font server using
COMMENT  fstobdf.  The resulting font is subject to the same copyright,
COMMENT  license, and trademark restrictions as the original font.  The
COMMENT  authors and distributors of fstobdf disclaim all liability for
COMMENT  misuse of the program or its output.
COMMENT  
FONT -Adobe-Times-Medium-R-Normal--10-100-75-75-P-54-ISO8859-1
SIZE 10 75 75
FONTBOUNDINGBOX 11 13 -1 -3
STARTPROPERTIES 32
FOUNDRY "Adobe"
FAMILY_NAME "Times"
WEIGHT_NAME "Medium"
SLANT "R"
SETWIDTH_NAME "Normal"
ADD_STYLE_NAME ""
PIXEL_SIZE 10
POINT_SIZE 100
RESOLUTION_X 75
RESOLUTION_Y 75
SPACING "P"
AVERAGE_WIDTH 54
CHARSET_REGISTRY "ISO8859"
CHARSET_ENCODING "1"
CAP_HEIGHT 7
X_HEIGHT 5
FACE_NAME "Times Roman"
COPYRIGHT "Copyright (c) 1984, 1987 Adobe Systems Incorporated. All Rights Reserved. Copyright (c) 1988, 1991 Digital Equipment Corporation. All Rights Reserved."
NOTICE "Times is a trademark of Linotype-Hell AG and/or its subsidiaries."
_DEC_DEVICE_FONTNAMES "PS=Times-Roman"
_DEC_PRODUCTINFO "DECwindows Fonts V2.2, 07-Nov-1991"
RELATIVE_SETWIDTH 50
RELATIVE_WEIGHT 50
CHARSET_COLLECTIONS "ASCII ISO8859-1 ADOBE-STANDARD"
FULL_NAME "Times Roman"
FONT "-Adobe-Times-Medium-R-Normal--10-100-75-75-P-54-ISO8859-1"
WEIGHT 10
RESOLUTION 103
QUAD_WIDTH 6
DEFAULT_CHAR 32
FONT_ASCENT 9
FONT_DESCENT 3
ENDPROPERTIES
CHARS 191
STARTCHAR space
ENCODING 32
SWIDTH 192 0
DWIDTH 2 0
BBX 1 1 0 0
BITMAP
00
ENDCHAR
STARTCHAR exclam
ENCODING 33
SWIDTH 288 0
DWIDTH 3 0
BBX 1 7 1 0
BITMAP
80
80
80
80
80
00
80
ENDCHAR
STARTCHAR quotedbl
ENCODING 34
SWIDTH 384 0
DWIDTH 4 0
BBX 3 2 0 5
BITMAP
a0
a0
ENDCHAR
STARTCHAR numbersign
ENCODING 35
SWIDTH 480 0
DWIDTH 5 0
BBX 5 7 0 0
BITMAP
50
50
f8
50
f8
50
50
ENDCHAR
STARTCHAR dollar
ENCODING 36
SWIDTH 480 0
DWIDTH 5 0
BBX 4 9 0 -1
BITMAP
20
70
90
80
60
10
90
e0
20
ENDCHAR
STARTCHAR percent
ENCODING 37
SWIDTH 768 0
DWIDTH 8 0
BBX 7 7 0 0
BITMAP
7e
a4
a8
56
2a
2a
44
ENDCHAR
STARTCHAR ampersand
ENCODING 38
SWIDTH 768 0
DWIDTH 8 0
BBX 8 7 0 0
BITMAP
30
50
6e
74
98
8d
76
ENDCHAR
STARTCHAR apostrophe
ENCODING 39
SWIDTH 288 0
DWIDTH 3 0
BBX 2 2 0 5
BITMAP
c0
40
ENDCHAR
STARTCHAR parenleft
ENCODING 40
SWIDTH 384 0
DWIDTH 4 0
BBX 3 9 0 -2
BITMAP
20
40
40
80
80
80
40
40
20
ENDCHAR
STARTCHAR parenright
ENCODING 41
SWIDTH 384 0
DWIDTH 4 0
BBX 3 9 0 -2
BITMAP
80
40
40
20
20
20
40
40
80
ENDCHAR
STARTCHAR asterisk
ENCODING 42
SWIDTH 480 0
DWIDTH 5 0
BBX 3 3 0 4
BITMAP
a0
40
a0
ENDCHAR
STARTCHAR plus
ENCODING 43
SWIDTH 576 0
DWIDTH 6 0
BBX 5 5 0 0
BITMAP
20
20
f8
20
20
ENDCHAR
STARTCHAR comma
ENCODING 44
SWIDTH 288 0
DWIDTH 3 0
BBX 1 3 1 -2
BITMAP
80
80
80
ENDCHAR
STARTCHAR minus
ENCODING 45
SWIDTH 672 0
DWIDTH 7 0
BBX 4 1 1 2
BITMAP
f0
ENDCHAR
STARTCHAR period
ENCODING 46
SWIDTH 288 0
DWIDTH 3 0
BBX 1 1 1 0
BITMAP
80
ENDCHAR
STARTCHAR slash
ENCODING 47
SWIDTH 288 0
DWIDTH 3 0
BBX 3 7 0 0
BITMAP
20
20
40
40
40
80
80
ENDCHAR
STARTCHAR 0
ENCODING 48
SWIDTH 480 0
DWIDTH 5 0
BBX 4 7 0 0
BITMAP
60
90
90
90
90
90
60
ENDCHAR
STARTCHAR 1
ENCODING 49
SWIDTH 480 0
DWIDTH 5 0
BBX 3 7 1 0
BITMAP
40
c0
40
40
40
40
e0
ENDCHAR
STARTCHAR 2
ENCODING 50
SWIDTH 480 0
DWIDTH 5 0
BBX 4 7 0 0
BITMAP
60
90
10
20
20
40
f0
ENDCHAR
STARTCHAR 3
ENCODING 51
SWIDTH 480 0
DWIDTH 5 0
BBX 4 7 0 0
BITMAP
60
90
10
60
10
10
e0
ENDCHAR
STARTCHAR 4
ENCODING 52
SWIDTH 480 0
DWIDTH 5 0
BBX 5 7 0 0
BITMAP
10
30
50
90
f8
10
10
ENDCHAR
STARTCHAR 5
ENCODING 53
SWIDTH 480 0
DWIDTH 5 0
BBX 4 7 0 0
BITMAP
70
40
e0
10
10
90
e0
ENDCHAR
STARTCHAR 6
ENCODING 54
SWIDTH 480 0
DWIDTH 5 0
BBX 4 7 0 0
BITMAP
30
40
e0
90
90
90
60
ENDCHAR
STARTCHAR 7
ENCODING 55
SWIDTH 480 0
DWIDTH 5 0
BBX 4 7 0 0
BITMAP
f0
90
20
20
40
40
40
ENDCHAR
STARTCHAR 8
ENCODING 56
SWIDTH 480 0
DWIDTH 5 0
BBX 4 7 0 0
BITMAP
60
90
90
60
90
90
60
ENDCHAR
STARTCHAR 9
ENCODING 57
SWIDTH 480 0
DWIDTH 5 0
BBX 4 7 0 0
BITMAP
60
90
90
90
70
20
c0
ENDCHAR
STARTCHAR colon
ENCODING 58
SWIDTH 288 0
DWIDTH 3 0
BBX 1 5 1 0
BITMAP
80
00
00
00
80
ENDCHAR
STARTCHAR semicolon
ENCODING 59
SWIDTH 288 0
DWIDTH 3 0
BBX 1 7 1 -2
BITMAP
80
00
00
00
80
80
80
ENDCHAR
STARTCHAR less
ENCODING 60
SWIDTH 480 0
DWIDTH 5 0
BBX 3 5 1 0
BITMAP
20
40
80
40
20
ENDCHAR
STARTCHAR equal
ENCODING 61
SWIDTH 576 0
DWIDTH 6 0
BBX 5 3 0 1
BITMAP
f8
00
f8
ENDCHAR
STARTCHAR greater
ENCODING 62
SWIDTH 480 0
DWIDTH 5 0
BBX 3 5 0 0
BITMAP
80
40
20
40
80
ENDCHAR
STARTCHAR question
ENCODING 63
SWIDTH 384 0
DWIDTH 4 0
BBX 3 7 0 0
BITMAP
e0
a0
20
40
40
00
40
ENDCHAR
STARTCHAR at
ENCODING 64
SWIDTH 864 0
DWIDTH 9 0
BBX 8 9 0 -2
BITMAP
3c
42
9d
a5
a5
ad
92
40
3e
ENDCHAR
STARTCHAR A
ENCODING 65
SWIDTH 768 0
DWIDTH 8 0
BBX 7 7 0 0
BITMAP
10
38
28
28
7c
44
ee
ENDCHAR
STARTCHAR B
ENCODING 66
SWIDTH 576 0
DWIDTH 6 0
BBX 5 7 0 0
BITMAP
f0
48
48
70
48
48
f0
ENDCHAR
STARTCHAR C
ENCODING 67
SWIDTH 672 0
DWIDTH 7 0
BBX 6 7 0 0
BITMAP
7c
c4
80
80
80
c4
78
ENDCHAR
STARTCHAR D
ENCODING 68
SWIDTH 672 0
DWIDTH 7 0
BBX 6 7 0 0
BITMAP
f8
4c
44
44
44
4c
f8
ENDCHAR
STARTCHAR E
ENCODING 69
SWIDTH 576 0
DWIDTH 6 0
BBX 5 7 0 0
BITMAP
f8
48
40
70
40
48
f8
ENDCHAR
STARTCHAR F
ENCODING 70
SWIDTH 576 0
DWIDTH 6 0
BBX 5 7 0 0
BITMAP
f8
48
40
70
40
40
e0
ENDCHAR
STARTCHAR G
ENCODING 71
SWIDTH 672 0
DWIDTH 7 0
BBX 6 7 0 0
BITMAP
7c
c4
80
9c
84
c4
78
ENDCHAR
STARTCHAR H
ENCODING 72
SWIDTH 768 0
DWIDTH 8 0
BBX 7 7 0 0
BITMAP
ee
44
44
7c
44
44
ee
ENDCHAR
STARTCHAR I
ENCODING 73
SWIDTH 384 0
DWIDTH 4 0
BBX 3 7 0 0
BITMAP
e0
40
40
40
40
40
e0
ENDCHAR
STARTCHAR J
ENCODING 74
SWIDTH 384 0
DWIDTH 4 0
BBX 4 7 0 0
BITMAP
70
20
20
20
20
a0
c0
ENDCHAR
STARTCHAR K
ENCODING 75
SWIDTH 672 0
DWIDTH 7 0
BBX 6 7 0 0
BITMAP
ec
48
50
60
50
48
ec
ENDCHAR
STARTCHAR L
ENCODING 76
SWIDTH 576 0
DWIDTH 6 0
BBX 5 7 0 0
BITMAP
e0
40
40
40
40
48
f8
ENDCHAR
STARTCHAR M
ENCODING 77
SWIDTH 960 0
DWIDTH 10 0
BBX 9 7 0 0
BITMAP
e380
6300
6300
5500
5500
4900
eb80
ENDCHAR
STARTCHAR N
ENCODING 78
SWIDTH 768 0
DWIDTH 8 0
BBX 7 7 0 0
BITMAP
ee
64
54
54
4c
4c
e4
ENDCHAR
STARTCHAR O
ENCODING 79
SWIDTH 672 0
DWIDTH 7 0
BBX 6 7 0 0
BITMAP
78
cc
84
84
84
cc
78
ENDCHAR
STARTCHAR P
ENCODING 80
SWIDTH 576 0
DWIDTH 6 0
BBX 5 7 0 0
BITMAP
f0
48
48
70
40
40
e0
ENDCHAR
STARTCHAR Q
ENCODING 81
SWIDTH 672 0
DWIDTH 7 0
BBX 6 9 0 -2
BITMAP
78
cc
84
84
84
cc
70
18
0c
ENDCHAR
STARTCHAR R
ENCODING 82
SWIDTH 672 0
DWIDTH 7 0
BBX 6 7 0 0
BITMAP
f0
48
48
70
50
48
ec
ENDCHAR
STARTCHAR S
ENCODING 83
SWIDTH 480 0
DWIDTH 5 0
BBX 4 7 0 0
BITMAP
70
90
c0
60
10
90
e0
ENDCHAR
STARTCHAR T
ENCODING 84
SWIDTH 576 0
DWIDTH 6 0
BBX 5 7 0 0
BITMAP
f8
a8
20
20
20
20
70
ENDCHAR
STARTCHAR U
ENCODING 85
SWIDTH 768 0
DWIDTH 8 0
BBX 7 7 0 0
BITMAP
ee
44
44
44
44
6c
38
ENDCHAR
STARTCHAR V
ENCODING 86
SWIDTH 768 0
DWIDTH 8 0
BBX 7 7 0 0
BITMAP
ee
44
6c
28
28
10
10
ENDCHAR
STARTCHAR W
ENCODING 87
SWIDTH 960 0
DWIDTH 10 0
BBX 10 7 0 0
BITMAP
ddc0
8880
c980
5500
5500
2200
2200
ENDCHAR
STARTCHAR X
ENCODING 88
SWIDTH 768 0
DWIDTH 8 0
BBX 7 7 0 0
BITMAP
ee
44
28
10
28
44
ee
ENDCHAR
STARTCHAR Y
ENCODING 89
SWIDTH 768 0
DWIDTH 8 0
BBX 7 7 0 0
BITMAP
ee
44
28
28
10
10
38
ENDCHAR
STARTCHAR Z
ENCODING 90
SWIDTH 576 0
DWIDTH 6 0
BBX 5 7 0 0
BITMAP
f8
88
10
20
40
88
f8
ENDCHAR
STARTCHAR bracketleft
ENCODING 91
SWIDTH 288 0
DWIDTH 3 0
BBX 2 9 0 -2
BITMAP
c0
80
80
80
80
80
80
80
c0
ENDCHAR
STARTCHAR backslash
ENCODING 92
SWIDTH 288 0
DWIDTH 3 0
BBX 3 7 0 0
BITMAP
80
80
40
40
40
20
20
ENDCHAR
STARTCHAR bracketright
ENCODING 93
SWIDTH 288 0
DWIDTH 3 0
BBX 2 9 0 -2
BITMAP
c0
40
40
40
40
40
40
40
c0
ENDCHAR
STARTCHAR asciicircum
ENCODING 94
SWIDTH 480 0
DWIDTH 5 0
BBX 3 3 1 4
BITMAP
40
a0
a0
ENDCHAR
STARTCHAR underscore
ENCODING 95
SWIDTH 480 0
DWIDTH 5 0
BBX 5 1 0 -3
BITMAP
f8
ENDCHAR
STARTCHAR grave
ENCODING 96
SWIDTH 288 0
DWIDTH 3 0
BBX 2 2 0 5
BITMAP
80
c0
ENDCHAR
STARTCHAR a
ENCODING 97
SWIDTH 384 0
DWIDTH 4 0
BBX 3 5 0 0
BITMAP
c0
20
60
a0
e0
ENDCHAR
STARTCHAR b
ENCODING 98
SWIDTH 480 0
DWIDTH 5 0
BBX 4 7 0 0
BITMAP
80
80
e0
90
90
90
e0
ENDCHAR
STARTCHAR c
ENCODING 99
SWIDTH 384 0
DWIDTH 4 0
BBX 3 5 0 0
BITMAP
60
80
80
80
60
ENDCHAR
STARTCHAR d
ENCODING 100
SWIDTH 480 0
DWIDTH 5 0
BBX 5 7 0 0
BITMAP
30
10
70
90
90
90
68
ENDCHAR
STARTCHAR e
ENCODING 101
SWIDTH 384 0
DWIDTH 4 0
BBX 3 5 0 0
BITMAP
60
a0
c0
80
60
ENDCHAR
STARTCHAR f
ENCODING 102
SWIDTH 384 0
DWIDTH 4 0
BBX 4 7 0 0
BITMAP
30
40
e0
40
40
40
e0
ENDCHAR
STARTCHAR g
ENCODING 103
SWIDTH 480 0
DWIDTH 5 0
BBX 4 7 0 -2
BITMAP
70
a0
a0
40
60
90
e0
ENDCHAR
STARTCHAR h
ENCODING 104
SWIDTH 480 0
DWIDTH 5 0
BBX 5 7 0 0
BITMAP
80
80
e0
90
90
90
d8
ENDCHAR
STARTCHAR i
ENCODING 105
SWIDTH 288 0
DWIDTH 3 0
BBX 2 7 0 0
BITMAP
40
00
c0
40
40
40
40
ENDCHAR
STARTCHAR j
ENCODING 106
SWIDTH 288 0
DWIDTH 3 0
BBX 2 9 0 -2
BITMAP
40
00
c0
40
40
40
40
40
80
ENDCHAR
STARTCHAR k
ENCODING 107
SWIDTH 480 0
DWIDTH 5 0
BBX 5 7 0 0
BITMAP
80
80
90
a0
e0
90
98
ENDCHAR
STARTCHAR l
ENCODING 108
SWIDTH 384 0
DWIDTH 4 0
BBX 3 7 0 0
BITMAP
c0
40
40
40
40
40
e0
ENDCHAR
STARTCHAR m
ENCODING 109
SWIDTH 768 0
DWIDTH 8 0
BBX 8 5 0 0
BITMAP
ec
92
92
92
db
ENDCHAR
STARTCHAR n
ENCODING 110
SWIDTH 480 0
DWIDTH 5 0
BBX 5 5 0 0
BITMAP
e0
90
90
90
d8
ENDCHAR
STARTCHAR o
ENCODING 111
SWIDTH 480 0
DWIDTH 5 0
BBX 4 5 0 0
BITMAP
60
90
90
90
60
ENDCHAR
STARTCHAR p
ENCODING 112
SWIDTH 480 0
DWIDTH 5 0
BBX 4 7 0 -2
BITMAP
e0
90
90
90
e0
80
c0
ENDCHAR
STARTCHAR q
ENCODING 113
SWIDTH 480 0
DWIDTH 5 0
BBX 5 7 0 -2
BITMAP
70
90
90
90
70
10
38
ENDCHAR
STARTCHAR r
ENCODING 114
SWIDTH 384 0
DWIDTH 4 0
BBX 3 5 0 0
BITMAP
a0
60
40
40
e0
ENDCHAR
STARTCHAR s
ENCODING 115
SWIDTH 384 0
DWIDTH 4 0
BBX 3 5 0 0
BITMAP
e0
80
60
20
e0
ENDCHAR
STARTCHAR t
ENCODING 116
SWIDTH 384 0
DWIDTH 4 0
BBX 4 6 0 0
BITMAP
40
e0
40
40
40
30
ENDCHAR
STARTCHAR u
ENCODING 117
SWIDTH 480 0
DWIDTH 5 0
BBX 5 5 0 0
BITMAP
90
90
90
90
68
ENDCHAR
STARTCHAR v
ENCODING 118
SWIDTH 480 0
DWIDTH 5 0
BBX 5 5 0 0
BITMAP
d8
90
50
60
20
ENDCHAR
STARTCHAR w
ENCODING 119
SWIDTH 768 0
DWIDTH 8 0
BBX 8 5 0 0
BITMAP
db
92
54
6c
28
ENDCHAR
STARTCHAR x
ENCODING 120
SWIDTH 576 0
DWIDTH 6 0
BBX 5 5 0 0
BITMAP
d8
50
20
50
d8
ENDCHAR
STARTCHAR y
ENCODING 121
SWIDTH 480 0
DWIDTH 5 0
BBX 6 7 -1 -2
BITMAP
dc
48
50
30
20
40
40
ENDCHAR
STARTCHAR z
ENCODING 122
SWIDTH 480 0
DWIDTH 5 0
BBX 4 5 0 0
BITMAP
f0
20
40
90
f0
ENDCHAR
STARTCHAR braceleft
ENCODING 123
SWIDTH 384 0
DWIDTH 4 0
BBX 3 9 0 -2
BITMAP
20
40
40
40
80
40
40
40
20
ENDCHAR
STARTCHAR bar
ENCODING 124
SWIDTH 192 0
DWIDTH 2 0
BBX 1 9 0 -2
BITMAP
80
80
80
80
80
80
80
80
80
ENDCHAR
STARTCHAR braceright
ENCODING 125
SWIDTH 384 0
DWIDTH 4 0
BBX 3 9 0 -2
BITMAP
80
40
40
40
20
40
40
40
80
ENDCHAR
STARTCHAR asciitilde
ENCODING 126
SWIDTH 672 0
DWIDTH 7 0
BBX 6 2 0 2
BITMAP
64
98
ENDCHAR
STARTCHAR nobreakspace
ENCODING 160
SWIDTH 192 0
DWIDTH 2 0
BBX 1 1 0 0
BITMAP
00
ENDCHAR
STARTCHAR exclamdown
ENCODING 161
SWIDTH 288 0
DWIDTH 3 0
BBX 1 7 1 -2
BITMAP
00
00
00
00
00
00
00
ENDCHAR
STARTCHAR cent
ENCODING 162
SWIDTH 480 0
DWIDTH 5 0
BBX 4 7 0 -1
BITMAP
00
00
00
00
00
00
00
ENDCHAR
STARTCHAR sterling
ENCODING 163
SWIDTH 480 0
DWIDTH 5 0
BBX 5 7 0 0
BITMAP
00
00
00
00
00
00
00
ENDCHAR
STARTCHAR currency
ENCODING 164
SWIDTH 480 0
DWIDTH 5 0
BBX 5 6 0 1
BITMAP
00
00
00
00
00
00
ENDCHAR
STARTCHAR yen
ENCODING 165
SWIDTH 480 0
DWIDTH 5 0
BBX 5 7 0 0
BITMAP
00
00
00
00
00
00
80
ENDCHAR
STARTCHAR brokenbar
ENCODING 166
SWIDTH 192 0
DWIDTH 2 0
BBX 1 7 0 0
BITMAP
00
80
80
80
80
80
00
ENDCHAR
STARTCHAR section
ENCODING 167
SWIDTH 480 0
DWIDTH 5 0
BBX 4 9 0 -1
BITMAP
70
90
80
90
e0
80
30
50
40
ENDCHAR
STARTCHAR diaeresis
ENCODING 168
SWIDTH 480 0
DWIDTH 5 0
BBX 3 1 1 6
BITMAP
e0
ENDCHAR
STARTCHAR copyright
ENCODING 169
SWIDTH 864 0
DWIDTH 9 0
BBX 7 7 1 0
BITMAP
40
c8
f0
88
70
50
50
ENDCHAR
STARTCHAR ordfeminine
ENCODING 170
SWIDTH 384 0
DWIDTH 4 0
BBX 3 5 0 2
BITMAP
60
80
80
40
c0
ENDCHAR
STARTCHAR guillemotleft
ENCODING 171
SWIDTH 480 0
DWIDTH 5 0
BBX 4 4 0 1
BITMAP
20
f0
20
70
ENDCHAR
STARTCHAR notsign
ENCODING 172
SWIDTH 672 0
DWIDTH 7 0
BBX 5 3 1 1
BITMAP
80
80
80
ENDCHAR
STARTCHAR hyphen
ENCODING 173
SWIDTH 384 0
DWIDTH 4 0
BBX 3 1 0 2
BITMAP
00
ENDCHAR
STARTCHAR registered
ENCODING 174
SWIDTH 864 0
DWIDTH 9 0
BBX 7 7 1 0
BITMAP
80
80
80
70
90
40
a0
ENDCHAR
STARTCHAR macron
ENCODING 175
SWIDTH 384 0
DWIDTH 4 0
BBX 3 1 0 6
BITMAP
80
ENDCHAR
STARTCHAR degree
ENCODING 176
SWIDTH 384 0
DWIDTH 4 0
BBX 4 4 0 3
BITMAP
50
20
90
e0
ENDCHAR
STARTCHAR plusminus
ENCODING 177
SWIDTH 576 0
DWIDTH 6 0
BBX 5 7 0 0
BITMAP
a0
38
40
98
a0
98
40
ENDCHAR
STARTCHAR twosuperior
ENCODING 178
SWIDTH 288 0
DWIDTH 3 0
BBX 3 4 0 3
BITMAP
20
c0
20
a0
ENDCHAR
STARTCHAR threesuperior
ENCODING 179
SWIDTH 288 0
DWIDTH 3 0
BBX 3 4 0 3
BITMAP
00
e0
40
a0
ENDCHAR
STARTCHAR acute
ENCODING 180
SWIDTH 288 0
DWIDTH 3 0
BBX 2 2 0 5
BITMAP
80
40
ENDCHAR
STARTCHAR mu
ENCODING 181
SWIDTH 480 0
DWIDTH 5 0
BBX 5 7 0 -2
BITMAP
f8
08
08
e0
38
40
b8
ENDCHAR
STARTCHAR paragraph
ENCODING 182
SWIDTH 576 0
DWIDTH 6 0
BBX 6 9 0 -2
BITMAP
b0
a8
44
38
e0
60
90
90
60
ENDCHAR
STARTCHAR periodcentered
ENCODING 183
SWIDTH 192 0
DWIDTH 2 0
BBX 1 1 0 2
BITMAP
00
ENDCHAR
STARTCHAR cedilla
ENCODING 184
SWIDTH 384 0
DWIDTH 4 0
BBX 3 3 0 -3
BITMAP
20
e0
20
ENDCHAR
STARTCHAR onesuperior
ENCODING 185
SWIDTH 288 0
DWIDTH 3 0
BBX 3 4 0 3
BITMAP
20
00
e0
60
ENDCHAR
STARTCHAR masculine
ENCODING 186
SWIDTH 384 0
DWIDTH 4 0
BBX 3 5 0 2
BITMAP
a0
40
e0
e0
40
ENDCHAR
STARTCHAR guillemotright
ENCODING 187
SWIDTH 480 0
DWIDTH 5 0
BBX 4 4 0 1
BITMAP
20
c0
40
80
ENDCHAR
STARTCHAR onequarter
ENCODING 188
SWIDTH 768 0
DWIDTH 8 0
BBX 7 7 0 0
BITMAP
90
90
90
90
e8
80
80
ENDCHAR
STARTCHAR onehalf
ENCODING 189
SWIDTH 768 0
DWIDTH 8 0
BBX 7 7 0 0
BITMAP
7c
e8
e8
e8
68
28
28
ENDCHAR
STARTCHAR threequarters
ENCODING 190
SWIDTH 768 0
DWIDTH 8 0
BBX 7 7 0 0
BITMAP
28
28
80
40
20
c0
40
ENDCHAR
STARTCHAR questiondown
ENCODING 191
SWIDTH 384 0
DWIDTH 4 0
BBX 3 7 0 -2
BITMAP
c0
40
e0
40
a0
40
00
ENDCHAR
STARTCHAR Agrave
ENCODING 192
SWIDTH 768 0
DWIDTH 8 0
BBX 7 10 0 0
BITMAP
e0
a0
50
50
a0
44
c8
48
f4
2c
ENDCHAR
STARTCHAR Aacute
ENCODING 193
SWIDTH 768 0
DWIDTH 8 0
BBX 7 10 0 0
BITMAP
3e
44
44
c8
48
f6
2a
24
4e
e4
ENDCHAR
STARTCHAR Acircumflex
ENCODING 194
SWIDTH 768 0
DWIDTH 8 0
BBX 7 10 0 0
BITMAP
48
28
d4
2c
3e
44
40
00
40
40
ENDCHAR
STARTCHAR Atilde
ENCODING 195
SWIDTH 768 0
DWIDTH 8 0
BBX 7 10 0 0
BITMAP
80
a0
e0
20
10
00
10
38
28
28
ENDCHAR
STARTCHAR Adiaeresis
ENCODING 196
SWIDTH 768 0
DWIDTH 8 0
BBX 7 9 0 0
BITMAP
7c
44
ee
08
10
00
10
38
28
ENDCHAR
STARTCHAR Aring
ENCODING 197
SWIDTH 768 0
DWIDTH 8 0
BBX 7 10 0 0
BITMAP
28
7c
44
ee
10
28
00
10
38
28
ENDCHAR
STARTCHAR AE
ENCODING 198
SWIDTH 864 0
DWIDTH 9 0
BBX 8 7 0 0
BITMAP
28
7c
44
ee
14
28
00
ENDCHAR
STARTCHAR Ccedilla
ENCODING 199
SWIDTH 672 0
DWIDTH 7 0
BBX 6 10 0 -3
BITMAP
10
38
28
28
7c
44
ec
28
00
10
ENDCHAR
STARTCHAR Egrave
ENCODING 200
SWIDTH 576 0
DWIDTH 6 0
BBX 5 10 0 0
BITMAP
38
28
28
78
40
e8
10
28
10
10
ENDCHAR
STARTCHAR Eacute
ENCODING 201
SWIDTH 576 0
DWIDTH 6 0
BBX 5 10 0 0
BITMAP
38
28
28
78
40
e8
18
38
28
28
ENDCHAR
STARTCHAR Ecircumflex
ENCODING 202
SWIDTH 576 0
DWIDTH 6 0
BBX 5 10 0 0
BITMAP
78
48
e8
78
c0
80
80
80
c0
78
ENDCHAR
STARTCHAR Ediaeresis
ENCODING 203
SWIDTH 576 0
DWIDTH 6 0
BBX 5 9 0 0
BITMAP
20
10
60
40
20
00
f8
48
40
ENDCHAR
STARTCHAR Igrave
ENCODING 204
SWIDTH 384 0
DWIDTH 4 0
BBX 3 10 0 0
BITMAP
60
40
40
e0
00
20
00
e0
40
40
ENDCHAR
STARTCHAR Iacute
ENCODING 205
SWIDTH 384 0
DWIDTH 4 0
BBX 3 10 0 0
BITMAP
60
40
40
e0
20
40
00
e0
40
40
ENDCHAR
STARTCHAR Icircumflex
ENCODING 206
SWIDTH 384 0
DWIDTH 4 0
BBX 3 10 0 0
BITMAP
60
40
40
e0
40
00
e0
40
40
60
ENDCHAR
STARTCHAR Idiaeresis
ENCODING 207
SWIDTH 384 0
DWIDTH 4 0
BBX 3 9 0 0
BITMAP
40
40
e0
80
40
00
e0
40
40
ENDCHAR
STARTCHAR ETH
ENCODING 208
SWIDTH 672 0
DWIDTH 7 0
BBX 6 7 0 0
BITMAP
40
40
40
e0
20
40
00
ENDCHAR
STARTCHAR Ntilde
ENCODING 209
SWIDTH 768 0
DWIDTH 8 0
BBX 7 10 0 0
BITMAP
e0
40
40
40
40
40
e0
40
a0
00
ENDCHAR
STARTCHAR Ograve
ENCODING 210
SWIDTH 672 0
DWIDTH 7 0
BBX 6 10 0 0
BITMAP
e0
40
40
40
40
40
e0
a0
00
e0
ENDCHAR
STARTCHAR Oacute
ENCODING 211
SWIDTH 672 0
DWIDTH 7 0
BBX 6 10 0 0
BITMAP
40
40
40
40
40
e0
f8
4c
44
e4
ENDCHAR
STARTCHAR Ocircumflex
ENCODING 212
SWIDTH 672 0
DWIDTH 7 0
BBX 6 10 0 0
BITMAP
44
4c
f8
28
50
00
ec
64
54
54
ENDCHAR
STARTCHAR Otilde
ENCODING 213
SWIDTH 672 0
DWIDTH 7 0
BBX 6 10 0 0
BITMAP
4c
4c
e4
40
20
00
78
cc
84
84
ENDCHAR
STARTCHAR Odiaeresis
ENCODING 214
SWIDTH 672 0
DWIDTH 7 0
BBX 6 9 0 0
BITMAP
84
cc
78
08
10
00
78
cc
84
ENDCHAR
STARTCHAR multiply
ENCODING 215
SWIDTH 576 0
DWIDTH 6 0
BBX 5 5 0 0
BITMAP
80
80
c8
78
20
ENDCHAR
STARTCHAR Ooblique
ENCODING 216
SWIDTH 768 0
DWIDTH 8 0
BBX 8 9 0 -1
BITMAP
50
00
78
cc
84
84
84
cc
78
ENDCHAR
STARTCHAR Ugrave
ENCODING 217
SWIDTH 768 0
DWIDTH 8 0
BBX 7 10 0 0
BITMAP
28
50
00
78
cc
84
84
84
cc
78
ENDCHAR
STARTCHAR Uacute
ENCODING 218
SWIDTH 768 0
DWIDTH 8 0
BBX 7 10 0 0
BITMAP
50
00
78
cc
84
84
84
cc
78
88
ENDCHAR
STARTCHAR Ucircumflex
ENCODING 219
SWIDTH 768 0
DWIDTH 8 0
BBX 7 10 0 0
BITMAP
50
20
50
88
00
3e
66
4a
52
52
ENDCHAR
STARTCHAR Udiaeresis
ENCODING 220
SWIDTH 768 0
DWIDTH 8 0
BBX 7 9 0 0
BITMAP
66
7c
80
20
10
00
ee
44
44
ENDCHAR
STARTCHAR Yacute
ENCODING 221
SWIDTH 768 0
DWIDTH 8 0
BBX 7 10 0 0
BITMAP
44
44
6c
38
08
10
00
ee
44
44
ENDCHAR
STARTCHAR THORN
ENCODING 222
SWIDTH 576 0
DWIDTH 6 0
BBX 5 7 0 0
BITMAP
40
40
68
38
10
28
00
ENDCHAR
STARTCHAR ssharp
ENCODING 223
SWIDTH 480 0
DWIDTH 5 0
BBX 4 7 0 0
BITMAP
e0
40
40
40
40
60
30
ENDCHAR
STARTCHAR agrave
ENCODING 224
SWIDTH 384 0
DWIDTH 4 0
BBX 3 8 0 0
BITMAP
20
00
e0
40
40
40
40
60
ENDCHAR
STARTCHAR aacute
ENCODING 225
SWIDTH 384 0
DWIDTH 4 0
BBX 3 8 0 0
BITMAP
20
00
00
00
e0
40
20
20
ENDCHAR
STARTCHAR acircumflex
ENCODING 226
SWIDTH 384 0
DWIDTH 4 0
BBX 3 8 0 0
BITMAP
00
00
20
e0
40
60
40
60
ENDCHAR
STARTCHAR atilde
ENCODING 227
SWIDTH 384 0
DWIDTH 4 0
BBX 4 8 0 0
BITMAP
40
e0
20
50
50
60
50
50
ENDCHAR
STARTCHAR adiaeresis
ENCODING 228
SWIDTH 384 0
DWIDTH 4 0
BBX 3 7 0 0
BITMAP
e0
80
40
00
c0
20
60
ENDCHAR
STARTCHAR aring
ENCODING 229
SWIDTH 384 0
DWIDTH 4 0
BBX 3 8 0 0
BITMAP
a0
e0
20
40
00
c0
20
60
ENDCHAR
STARTCHAR ae
ENCODING 230
SWIDTH 576 0
DWIDTH 6 0
BBX 5 5 0 0
BITMAP
a0
e0
40
a0
00
ENDCHAR
STARTCHAR ccedilla
ENCODING 231
SWIDTH 384 0
DWIDTH 4 0
BBX 3 8 0 -3
BITMAP
c0
20
60
a0
e0
40
a0
00
ENDCHAR
STARTCHAR egrave
ENCODING 232
SWIDTH 384 0
DWIDTH 4 0
BBX 3 8 0 0
BITMAP
c0
20
60
a0
e0
a0
00
c0
ENDCHAR
STARTCHAR eacute
ENCODING 233
SWIDTH 384 0
DWIDTH 4 0
BBX 3 8 0 0
BITMAP
20
60
a0
e0
40
a0
40
c0
ENDCHAR
STARTCHAR ecircumflex
ENCODING 234
SWIDTH 384 0
DWIDTH 4 0
BBX 3 8 0 0
BITMAP
20
60
a0
e0
c0
20
60
a0
ENDCHAR
STARTCHAR ediaeresis
ENCODING 235
SWIDTH 384 0
DWIDTH 4 0
BBX 3 7 0 0
BITMAP
c0
60
80
80
80
60
40
ENDCHAR
STARTCHAR igrave
ENCODING 236
SWIDTH 384 0
DWIDTH 4 0
BBX 3 8 0 0
BITMAP
20
c0
80
40
00
60
a0
c0
ENDCHAR
STARTCHAR iacute
ENCODING 237
SWIDTH 384 0
DWIDTH 4 0
BBX 3 8 0 0
BITMAP
80
60
20
40
00
60
a0
c0
ENDCHAR
STARTCHAR icircumflex
ENCODING 238
SWIDTH 384 0
DWIDTH 4 0
BBX 3 8 0 0
BITMAP
80
60
40
a0
00
60
a0
c0
ENDCHAR
STARTCHAR idiaeresis
ENCODING 239
SWIDTH 384 0
DWIDTH 4 0
BBX 3 7 0 0
BITMAP
80
60
a0
00
60
a0
c0
ENDCHAR
STARTCHAR eth
ENCODING 240
SWIDTH 480 0
DWIDTH 5 0
BBX 4 8 0 0
BITMAP
80
60
80
40
00
c0
40
40
ENDCHAR
STARTCHAR ntilde
ENCODING 241
SWIDTH 480 0
DWIDTH 5 0
BBX 5 8 0 0
BITMAP
40
e0
20
40
00
c0
40
40
ENDCHAR
STARTCHAR ograve
ENCODING 242
SWIDTH 480 0
DWIDTH 5 0
BBX 4 8 0 0
BITMAP
40
e0
40
a0
00
c0
40
40
ENDCHAR
STARTCHAR oacute
ENCODING 243
SWIDTH 480 0
DWIDTH 5 0
BBX 4 8 0 0
BITMAP
40
e0
a0
00
c0
40
40
40
ENDCHAR
STARTCHAR ocircumflex
ENCODING 244
SWIDTH 480 0
DWIDTH 5 0
BBX 4 8 0 0
BITMAP
e0
40
70
a0
70
90
90
90
ENDCHAR
STARTCHAR otilde
ENCODING 245
SWIDTH 480 0
DWIDTH 5 0
BBX 4 8 0 0
BITMAP
60
50
a0
00
e0
90
90
90
ENDCHAR
STARTCHAR odiaeresis
ENCODING 246
SWIDTH 480 0
DWIDTH 5 0
BBX 4 7 0 0
BITMAP
d0
40
20
00
60
90
90
ENDCHAR
STARTCHAR division
ENCODING 247
SWIDTH 576 0
DWIDTH 6 0
BBX 5 5 0 0
BITMAP
90
60
20
40
00
ENDCHAR
STARTCHAR oslash
ENCODING 248
SWIDTH 480 0
DWIDTH 5 0
BBX 6 7 -1 -1
BITMAP
60
90
90
90
60
40
a0
ENDCHAR
STARTCHAR ugrave
ENCODING 249
SWIDTH 480 0
DWIDTH 5 0
BBX 5 8 0 0
BITMAP
00
60
90
90
90
60
50
a0
ENDCHAR
STARTCHAR uacute
ENCODING 250
SWIDTH 480 0
DWIDTH 5 0
BBX 5 8 0 0
BITMAP
00
60
90
90
90
60
a0
00
ENDCHAR
STARTCHAR ucircumflex
ENCODING 251
SWIDTH 480 0
DWIDTH 5 0
BBX 5 8 0 0
BITMAP
60
90
90
90
60
20
00
f8
ENDCHAR
STARTCHAR udiaeresis
ENCODING 252
SWIDTH 480 0
DWIDTH 5 0
BBX 5 7 0 0
BITMAP
00
20
00
38
48
48
48
ENDCHAR
STARTCHAR yacute
ENCODING 253
SWIDTH 480 0
DWIDTH 5 0
BBX 5 10 0 -2
BITMAP
70
80
40
20
00
90
90
90
90
68
ENDCHAR
STARTCHAR thorn
ENCODING 254
SWIDTH 480 0
DWIDTH 5 0
BBX 4 9 0 -2
BITMAP
20
40
00
90
90
90
90
60
20
ENDCHAR
STARTCHAR ydiaeresis
ENCODING 255
SWIDTH 480 0
DWIDTH 5 0
BBX 5 9 0 -2
BITMAP
50
00
90
90
90
90
68
50
00
ENDCHAR
ENDFONT
